<?xml version="1.0" encoding="UTF-8"?>
<svg id="Layer_2" data-name="Layer 2" xmlns="http://www.w3.org/2000/svg" viewBox="0 0 527.17 229.79">
  <defs>
    <style>
      .cls-1, .cls-2 {
        fill: #000;
      }

      .cls-1, .cls-2, .cls-3 {
        stroke-width: 0px;
      }

      .cls-2 {
        fill-rule: evenodd;
      }

      .cls-3 {
        fill: #e11f26;
      }
    </style>
  </defs>
  <g id="Layer_2-2" data-name="Layer 2">
    <polygon class="cls-3" points="279.09 63.98 310.1 63.98 310.1 94.99 279.09 94.99 279.09 126 248.08 126 248.08 94.99 217.07 94.99 217.07 63.98 248.08 63.98 248.08 32.97 279.09 32.97 279.09 63.98"/>
    <path class="cls-3" d="M189.16,57.16c-6.22,19.13,6.2,36.79,23.43,40.75-12.06,13.61-11.03,35.32,5,46.74,16.38,11.67,36.69,5.12,46-9.69,9.3,14.8,29.72,21.51,45.99,9.68,16.27-11.82,17.06-33.13,5-46.74,17.22-3.96,29.64-21.62,23.43-40.75-6.22-19.13-26.88-26.26-42.91-19.2.03-1.09.09-2.18.09-3.27,0-17.45-14.15-31.6-31.6-31.6s-31.6,14.15-31.6,31.6c0,1.09.05,2.18.09,3.27-17.06-7.07-36.69.07-42.9,19.2ZM207.48,99.58c-17.57-6.31-27.06-25.49-21.26-43.37,5.81-17.88,24.76-27.82,42.68-22.59.57-18.66,15.88-33.62,34.68-33.62s34.11,14.95,34.68,33.62c17.92-5.22,36.88,4.71,42.69,22.59,5.81,17.88-3.68,37.06-21.25,43.37,10.51,15.43,6.91,36.53-8.3,47.58-15.21,11.05-36.38,7.95-47.81-6.81-11.43,14.76-32.6,17.86-47.81,6.81-15.21-11.05-18.81-32.14-8.3-47.58Z"/>
    <path class="cls-2" d="M0,188.39v33.03h6.66v-13.18h3.56c1.57,0,3.01-.2,4.3-.6s2.39-1,3.28-1.8c.92-.8,1.63-1.84,2.13-3.1.52-1.26.79-2.75.79-4.44,0-1.23-.15-2.44-.46-3.61-.31-1.2-.82-2.27-1.53-3.19-.71-.93-1.65-1.67-2.82-2.22-1.14-.59-2.56-.88-4.26-.88H0ZM6.66,203.33v-10.04h2.78c1.67,0,2.85.43,3.56,1.3.71.86,1.06,2.13,1.06,3.79s-.42,2.94-1.25,3.75c-.8.8-1.87,1.2-3.19,1.2h-2.96Z"/>
    <path class="cls-2" d="M27.23,204.16h5.74v-.69c0-.99.25-1.77.74-2.36.49-.59,1.23-.88,2.22-.88,1.08,0,1.84.28,2.27.83.46.52.69,1.26.69,2.22,0,.83-.19,1.47-.56,1.9-.37.43-1.03.77-1.99,1.02l-3.61.97c-1.11.31-2.07.66-2.87,1.06-.77.4-1.42.91-1.94,1.53-.49.59-.86,1.31-1.11,2.17-.25.83-.37,1.83-.37,3.01,0,.83.11,1.68.32,2.54.22.83.56,1.59,1.02,2.27.46.68,1.08,1.22,1.85,1.62.77.37,1.71.55,2.82.55,1.54,0,2.79-.19,3.75-.55.99-.4,1.85-1.25,2.59-2.54h.09c.09.43.18.88.28,1.34.12.43.29.85.51,1.25h6.11c-.31-.74-.52-1.43-.65-2.08-.09-.65-.14-1.56-.14-2.73v-13.09c0-1.11-.12-2.13-.37-3.05-.22-.96-.65-1.77-1.3-2.45-.65-.68-1.56-1.2-2.73-1.57-1.17-.37-2.71-.55-4.63-.55-1.2,0-2.34.14-3.42.42-1.05.25-1.97.68-2.78,1.3-.77.59-1.39,1.37-1.85,2.36-.46.96-.69,2.16-.69,3.61v.6ZM38.89,208.97v4.9c0,.68-.12,1.26-.37,1.76-.25.49-.57.9-.97,1.2-.37.31-.79.54-1.25.69-.46.12-.91.19-1.34.19-.86,0-1.48-.34-1.85-1.02-.37-.68-.56-1.5-.56-2.45,0-1.11.28-1.99.83-2.64.55-.65,1.48-1.11,2.78-1.39.4-.09.85-.23,1.34-.42.49-.22.96-.49,1.39-.83Z"/>
    <rect class="cls-1" x="54.04" y="188.39" width="6.38" height="33.03"/>
    <path class="cls-2" d="M69.15,204.16h5.74v-.69c0-.99.25-1.77.74-2.36.49-.59,1.23-.88,2.22-.88,1.08,0,1.84.28,2.27.83.46.52.69,1.26.69,2.22,0,.83-.18,1.47-.56,1.9-.37.43-1.03.77-1.99,1.02l-3.61.97c-1.11.31-2.07.66-2.87,1.06-.77.4-1.42.91-1.94,1.53-.49.59-.86,1.31-1.11,2.17-.25.83-.37,1.83-.37,3.01,0,.83.11,1.68.32,2.54.22.83.56,1.59,1.02,2.27.46.68,1.08,1.22,1.85,1.62.77.37,1.71.55,2.82.55,1.54,0,2.79-.19,3.75-.55.99-.4,1.85-1.25,2.59-2.54h.09c.09.43.19.88.28,1.34.12.43.29.85.51,1.25h6.11c-.31-.74-.52-1.43-.65-2.08-.09-.65-.14-1.56-.14-2.73v-13.09c0-1.11-.12-2.13-.37-3.05-.22-.96-.65-1.77-1.3-2.45-.65-.68-1.56-1.2-2.73-1.57-1.17-.37-2.71-.55-4.63-.55-1.2,0-2.34.14-3.42.42-1.05.25-1.97.68-2.78,1.3-.77.59-1.39,1.37-1.85,2.36-.46.96-.69,2.16-.69,3.61v.6ZM80.81,208.97v4.9c0,.68-.12,1.26-.37,1.76-.25.49-.57.9-.97,1.2-.37.31-.79.54-1.25.69-.46.12-.91.19-1.34.19-.86,0-1.48-.34-1.85-1.02-.37-.68-.56-1.5-.56-2.45,0-1.11.28-1.99.83-2.64.55-.65,1.48-1.11,2.78-1.39.4-.09.85-.23,1.34-.42.49-.22.96-.49,1.39-.83Z"/>
    <path class="cls-2" d="M95.73,196.53v24.89h6.38v-16.51c0-2.74,1.13-4.12,3.38-4.12.96,0,1.65.26,2.08.79.43.49.65,1.39.65,2.68v17.16h6.38v-18.46c0-2.5-.56-4.3-1.67-5.41-1.08-1.11-2.64-1.67-4.67-1.67-1.39,0-2.62.29-3.7.88-1.08.55-1.96,1.45-2.64,2.68h-.09v-2.91h-6.11Z"/>
    <path class="cls-2" d="M141.79,196.53h-6.11v2.78h-.09c-.62-1.3-1.4-2.19-2.36-2.68-.96-.49-1.88-.74-2.78-.74-1.73,0-3.12.39-4.16,1.16-1.02.77-1.8,1.77-2.36,3.01-.52,1.2-.88,2.56-1.06,4.07-.15,1.51-.23,2.99-.23,4.44,0,4.53.63,7.77,1.9,9.71,1.3,1.91,3.21,2.87,5.74,2.87,1.02,0,1.99-.28,2.91-.83.96-.56,1.76-1.29,2.41-2.22h.09v3.28c0,1.23-.26,2.27-.79,3.1-.52.83-1.43,1.25-2.73,1.25-.4,0-.79-.06-1.16-.19-.34-.12-.66-.29-.97-.51-.65-.46-.97-1.1-.97-1.9h-6.11c0,2.13.73,3.76,2.17,4.9,1.48,1.17,3.58,1.76,6.29,1.76,3.73,0,6.38-.8,7.96-2.41,1.6-1.6,2.41-4.01,2.41-7.22v-23.64ZM129.02,209.76c0-1.67.03-3.07.09-4.21.09-1.17.26-2.1.51-2.78.25-.71.59-1.22,1.02-1.53.43-.31,1-.46,1.71-.46,1.26,0,2.13.63,2.59,1.9.49,1.26.74,3.41.74,6.43,0,1.05-.06,2.02-.19,2.92-.09.86-.28,1.6-.55,2.22-.25.62-.6,1.11-1.06,1.48-.43.34-.99.51-1.67.51s-1.23-.17-1.67-.51c-.4-.37-.72-.85-.97-1.43-.22-.62-.37-1.31-.46-2.08-.06-.77-.09-1.59-.09-2.45Z"/>
    <polygon class="cls-2" points="165.58 188.39 165.58 221.42 171.68 221.42 171.68 195.05 171.78 195.05 177.65 221.42 182.83 221.42 188.71 195.05 188.8 195.05 188.8 221.42 194.91 221.42 194.91 188.39 185.05 188.39 180.29 211.7 180.2 211.7 175.48 188.39 165.58 188.39"/>
    <path class="cls-2" d="M209.23,209.94h12.63v-1.43c0-1.91-.12-3.64-.37-5.18-.25-1.57-.71-2.9-1.39-3.98-.68-1.11-1.62-1.96-2.82-2.54-1.17-.62-2.68-.92-4.53-.92-2.16,0-3.89.35-5.18,1.06-1.29.71-2.3,1.67-3.01,2.87-.68,1.2-1.14,2.58-1.39,4.12-.22,1.54-.32,3.15-.32,4.81,0,1.57.06,3.15.19,4.72.15,1.57.54,2.99,1.16,4.26.62,1.26,1.57,2.28,2.87,3.05,1.3.77,3.1,1.16,5.41,1.16,3.05,0,5.29-.75,6.71-2.27s2.19-3.72,2.31-6.62h-5.74c-.19,1.57-.52,2.75-1.02,3.52-.49.77-1.28,1.16-2.36,1.16-.59,0-1.08-.15-1.48-.46-.4-.34-.72-.77-.97-1.3-.25-.55-.43-1.17-.55-1.85-.09-.71-.14-1.43-.14-2.17v-1.99ZM215.75,206.15h-6.52v-.97c0-.59.05-1.17.14-1.76.12-.59.31-1.11.55-1.57.25-.49.57-.88.97-1.16.43-.31.97-.46,1.62-.46s1.17.14,1.57.42c.43.25.76.63.97,1.16.25.49.42,1.11.51,1.85.09.71.15,1.54.19,2.5Z"/>
    <path class="cls-2" d="M229.47,196.53v24.89h6.38v-14.94c0-.83.14-1.53.42-2.08.28-.59.65-1.05,1.11-1.39.46-.37.97-.63,1.53-.79.55-.15,1.11-.23,1.67-.23.34,0,.66.02.97.05.34,0,.68.02,1.02.05v-6.11c-.19-.03-.39-.05-.6-.05-.19-.03-.37-.05-.56-.05-1.33,0-2.45.37-3.38,1.11-.92.71-1.71,1.67-2.36,2.87h-.09v-3.33h-6.11Z"/>
    <path class="cls-2" d="M249.11,204.16h5.74v-.69c0-.99.25-1.77.74-2.36.49-.59,1.23-.88,2.22-.88,1.08,0,1.83.28,2.27.83.46.52.69,1.26.69,2.22,0,.83-.19,1.47-.56,1.9-.37.43-1.03.77-1.99,1.02l-3.61.97c-1.11.31-2.07.66-2.87,1.06-.77.4-1.42.91-1.94,1.53-.49.59-.86,1.31-1.11,2.17-.25.83-.37,1.83-.37,3.01,0,.83.11,1.68.32,2.54.22.83.56,1.59,1.02,2.27.46.68,1.08,1.22,1.85,1.62.77.37,1.71.55,2.82.55,1.54,0,2.79-.19,3.75-.55.99-.4,1.85-1.25,2.59-2.54h.09c.09.43.19.88.28,1.34.12.43.29.85.51,1.25h6.11c-.31-.74-.52-1.43-.65-2.08-.09-.65-.14-1.56-.14-2.73v-13.09c0-1.11-.12-2.13-.37-3.05-.22-.96-.65-1.77-1.29-2.45-.65-.68-1.56-1.2-2.73-1.57-1.17-.37-2.71-.55-4.63-.55-1.2,0-2.34.14-3.42.42-1.05.25-1.97.68-2.78,1.3-.77.59-1.39,1.37-1.85,2.36-.46.96-.69,2.16-.69,3.61v.6ZM260.77,208.97v4.9c0,.68-.12,1.26-.37,1.76-.25.49-.57.9-.97,1.2-.37.31-.79.54-1.25.69-.46.12-.91.19-1.34.19-.86,0-1.48-.34-1.85-1.02-.37-.68-.56-1.5-.56-2.45,0-1.11.28-1.99.83-2.64.56-.65,1.48-1.11,2.78-1.39.4-.09.85-.23,1.34-.42.49-.22.96-.49,1.39-.83Z"/>
    <path class="cls-2" d="M275.69,188.39v33.03h6.38v-16.51c0-2.74,1.13-4.12,3.38-4.12.96,0,1.65.26,2.08.79.43.49.65,1.39.65,2.68v17.16h6.38v-18.46c0-2.5-.56-4.3-1.67-5.41-1.08-1.11-2.64-1.67-4.67-1.67-2.81,0-4.83,1.06-6.06,3.19h-.09v-10.69h-6.38Z"/>
    <rect class="cls-1" x="318.31" y="188.39" width="6.66" height="33.03"/>
    <path class="cls-2" d="M334.02,196.53v24.89h6.38v-16.51c0-2.74,1.13-4.12,3.38-4.12.96,0,1.65.26,2.08.79.43.49.65,1.39.65,2.68v17.16h6.38v-18.46c0-2.5-.56-4.3-1.67-5.41-1.08-1.11-2.64-1.67-4.67-1.67-1.39,0-2.62.29-3.7.88-1.08.55-1.96,1.45-2.64,2.68h-.09v-2.91h-6.11Z"/>
    <path class="cls-2" d="M367.22,208.97c0-2.71.2-4.75.6-6.11.43-1.39,1.34-2.08,2.73-2.08s2.33.69,2.73,2.08c.43,1.36.65,3.39.65,6.11s-.22,4.77-.65,6.15c-.4,1.36-1.31,2.04-2.73,2.04s-2.3-.68-2.73-2.04c-.4-1.39-.6-3.44-.6-6.15ZM374.2,218.78v2.64h6.11v-33.03h-6.38v10.46h-.09c-.68-.99-1.45-1.73-2.31-2.22-.83-.49-1.85-.74-3.05-.74-2.62,0-4.55,1.03-5.78,3.1-1.23,2.03-1.85,5.37-1.85,9.99s.62,7.94,1.85,9.95c1.23,2,3.16,3.01,5.78,3.01,1.29,0,2.37-.23,3.24-.69.89-.46,1.7-1.28,2.41-2.45h.09Z"/>
    <path class="cls-2" d="M388.02,208.97c0,2.16.15,4.07.46,5.74.31,1.63.83,3.01,1.57,4.12.74,1.08,1.74,1.88,3.01,2.41,1.26.49,2.85.72,4.76.69,1.82,0,3.35-.26,4.58-.79,1.27-.52,2.28-1.33,3.05-2.41.77-1.11,1.33-2.48,1.67-4.12.34-1.63.51-3.52.51-5.64s-.15-4.1-.46-5.74c-.31-1.63-.83-3.01-1.57-4.12-.74-1.11-1.74-1.93-3.01-2.45-1.26-.56-2.85-.82-4.76-.79-1.82,0-3.36.29-4.63.88-1.23.55-2.24,1.39-3.01,2.5-.77,1.08-1.33,2.44-1.67,4.07-.34,1.63-.51,3.52-.51,5.64ZM394.4,208.97c0-1.26.03-2.44.09-3.52.06-1.08.2-2,.42-2.78.25-.77.6-1.37,1.06-1.8.46-.43,1.08-.65,1.85-.65,1.3,0,2.19.68,2.68,2.04.49,1.36.74,3.59.74,6.71s-.25,5.35-.74,6.71c-.49,1.36-1.39,2.04-2.68,2.04-.77,0-1.39-.22-1.85-.65-.46-.43-.82-1.03-1.06-1.8-.22-.77-.35-1.7-.42-2.78-.06-1.08-.09-2.25-.09-3.52Z"/>
    <path class="cls-2" d="M415.34,196.53v24.89h6.38v-16.51c0-2.74,1.13-4.12,3.38-4.12.96,0,1.65.26,2.08.79.43.49.65,1.39.65,2.68v17.16h6.38v-18.46c0-2.5-.56-4.3-1.67-5.41-1.08-1.11-2.64-1.67-4.67-1.67-1.39,0-2.62.29-3.7.88-1.08.55-1.96,1.45-2.64,2.68h-.09v-2.91h-6.11Z"/>
    <path class="cls-2" d="M448.21,209.94h12.63v-1.43c0-1.91-.12-3.64-.37-5.18-.25-1.57-.71-2.9-1.39-3.98-.68-1.11-1.62-1.96-2.82-2.54-1.17-.62-2.68-.92-4.53-.92-2.16,0-3.89.35-5.18,1.06-1.3.71-2.3,1.67-3.01,2.87-.68,1.2-1.14,2.58-1.39,4.12-.22,1.54-.32,3.15-.32,4.81,0,1.57.06,3.15.19,4.72.15,1.57.54,2.99,1.16,4.26.62,1.26,1.57,2.28,2.87,3.05,1.3.77,3.1,1.16,5.41,1.16,3.05,0,5.29-.75,6.71-2.27s2.19-3.72,2.31-6.62h-5.74c-.19,1.57-.52,2.75-1.02,3.52-.49.77-1.28,1.16-2.36,1.16-.59,0-1.08-.15-1.48-.46-.4-.34-.73-.77-.97-1.3-.25-.55-.43-1.17-.55-1.85-.09-.71-.14-1.43-.14-2.17v-1.99ZM454.73,206.15h-6.52v-.97c0-.59.05-1.17.14-1.76.12-.59.31-1.11.55-1.57.25-.49.57-.88.97-1.16.43-.31.97-.46,1.62-.46s1.17.14,1.57.42c.43.25.76.63.97,1.16.25.49.42,1.11.51,1.85.09.71.15,1.54.19,2.5Z"/>
    <path class="cls-2" d="M473.13,213.27h-5.74v.88c0,1.2.14,2.3.42,3.28.28.96.76,1.77,1.43,2.45.71.68,1.65,1.19,2.82,1.53,1.2.34,2.7.51,4.49.51,1.36,0,2.59-.14,3.7-.42,1.14-.28,2.11-.74,2.91-1.39.83-.65,1.48-1.45,1.94-2.4.46-.99.69-2.14.69-3.47,0-1.88-.42-3.36-1.25-4.44-.83-1.11-2.25-2-4.26-2.68l-3.84-1.3c-1.08-.34-1.82-.76-2.22-1.25-.37-.49-.55-1.05-.55-1.67,0-.89.29-1.56.88-1.99.62-.46,1.33-.69,2.13-.69,1.05,0,1.77.31,2.17.93.43.59.65,1.53.65,2.82h5.74v-1.02c0-2.25-.69-3.99-2.08-5.23s-3.53-1.85-6.43-1.85c-1.63,0-3.04.2-4.21.6-1.14.4-2.08.94-2.82,1.62-.74.68-1.28,1.48-1.62,2.41-.34.89-.51,1.85-.51,2.87,0,1.76.45,3.21,1.34,4.35.89,1.11,2.22,1.97,3.98,2.59l4.49,1.62c.62.25,1.16.59,1.62,1.02.46.4.69,1,.69,1.8,0,.99-.29,1.73-.88,2.22-.59.49-1.37.74-2.36.74-1.08,0-1.91-.32-2.5-.97-.56-.68-.83-1.56-.83-2.64v-.83Z"/>
    <path class="cls-2" d="M493.51,196.53v24.89h6.38v-24.89h-6.38ZM493.51,188.02v5.46h6.38v-5.46h-6.38Z"/>
    <path class="cls-2" d="M508.62,204.16h5.74v-.69c0-.99.25-1.77.74-2.36.49-.59,1.23-.88,2.22-.88,1.08,0,1.83.28,2.27.83.46.52.69,1.26.69,2.22,0,.83-.19,1.47-.56,1.9-.37.43-1.03.77-1.99,1.02l-3.61.97c-1.11.31-2.07.66-2.87,1.06-.77.4-1.42.91-1.94,1.53-.49.59-.86,1.31-1.11,2.17-.25.83-.37,1.83-.37,3.01,0,.83.11,1.68.32,2.54.22.83.56,1.59,1.02,2.27.46.68,1.08,1.22,1.85,1.62.77.37,1.71.55,2.82.55,1.54,0,2.79-.19,3.75-.55.99-.4,1.85-1.25,2.59-2.54h.09c.09.43.19.88.28,1.34.12.43.29.85.51,1.25h6.11c-.31-.74-.52-1.43-.65-2.08-.09-.65-.14-1.56-.14-2.73v-13.09c0-1.11-.12-2.13-.37-3.05-.22-.96-.65-1.77-1.29-2.45-.65-.68-1.56-1.2-2.73-1.57-1.17-.37-2.71-.55-4.63-.55-1.2,0-2.34.14-3.42.42-1.05.25-1.97.68-2.78,1.3-.77.59-1.39,1.37-1.85,2.36-.46.96-.69,2.16-.69,3.61v.6ZM520.27,208.97v4.9c0,.68-.12,1.26-.37,1.76-.25.49-.57.9-.97,1.2-.37.31-.79.54-1.25.69-.46.12-.91.19-1.34.19-.86,0-1.48-.34-1.85-1.02-.37-.68-.56-1.5-.56-2.45,0-1.11.28-1.99.83-2.64.56-.65,1.48-1.11,2.78-1.39.4-.09.85-.23,1.34-.42.49-.22.96-.49,1.39-.83Z"/>
  </g>
</svg>